<?xml version="1.0" encoding="utf-8"?>
<!-- Generator: Adobe Illustrator 27.8.1, SVG Export Plug-In . SVG Version: 6.00 Build 0)  -->
<svg version="1.1" id="레이어_1" xmlns="http://www.w3.org/2000/svg" xmlns:xlink="http://www.w3.org/1999/xlink" x="0px"
	 y="0px" viewBox="0 0 24 24" style="enable-background:new 0 0 24 24;" xml:space="preserve">
<path d="M11.5,0.4C8.7,2.7,6.7,3,3.8,3C3.4,3,3,3.4,3,3.8c0,2.7,0,10.7,0,10.7c0,4.4,2.9,5.7,8.2,9c0.5,0.3,1,0.3,1.5,0
	c5.3-3.3,8.2-4.6,8.2-9l0-10.7C21,3.4,20.6,3,20.2,3c-2.9,0-4.8-0.3-7.6-2.5C12.2,0.2,11.8,0.2,11.5,0.4z M5,14.5v-2.3
	C5,12.1,5.1,12,5.3,12H12l0-8.9c0-0.2,0.3-0.4,0.4-0.2c2.2,1.5,4.1,2,6.3,2.1C18.9,5,19,5.1,19,5.2c0,1.1,0,5.4,0,6.5
	c0,0.2-0.1,0.3-0.3,0.3H12l0,9.1c0,0.2-0.2,0.4-0.4,0.2C6.6,18.3,5,17.5,5,14.5z"/>
</svg>
